<svg id="SvgjsSvg1075" width="288" height="288" xmlns="http://www.w3.org/2000/svg" version="1.1" xmlns:xlink="http://www.w3.org/1999/xlink" xmlns:svgjs="http://svgjs.com/svgjs"><defs id="SvgjsDefs1076"></defs><g id="SvgjsG1077"><svg xmlns="http://www.w3.org/2000/svg" viewBox="0 0 64 64" width="288" height="288"><path fill="#000000" d="M57,45H7V11A2,2,0,0,1,9,9H55a2,2,0,0,1,2,2Z" class="colorfff svgShape"></path><rect width="22" height="22" x="30" y="16" fill="#e6e6e6" rx="3" ry="3" class="colore6e6e6 svgShape"></rect><rect width="22" height="22" x="30" y="14" fill="#e3c4a8" rx="3" ry="3" class="colorffa88a svgShape"></rect><path fill="#fdae67" d="M49,22.5A15.48,15.48,0,0,1,41.11,36H33a3,3,0,0,1-3-3V17a3,3,0,0,1,3-3H46.46A15.45,15.45,0,0,1,49,22.5Z" class="colorfd9467 svgShape"></path><path fill="#7ab6cc" d="M61,47v3a5,5,0,0,1-5,5H8a5,5,0,0,1-5-5V47a2,2,0,0,1,2-2H59A2,2,0,0,1,61,47Z" class="color7accbe svgShape"></path><path fill="#4592af" d="M50.21,45a31.41,31.41,0,0,1-5.79,10H8a5,5,0,0,1-5-5V47a2,2,0,0,1,2-2Z" class="color61c3b6 svgShape"></path><path fill="#000000" d="M38,45.24l-.62,2.49A3,3,0,0,1,34.44,50H29.56a3,3,0,0,1-2.91-2.27L26,45.24a1,1,0,0,1,.18-.86A1,1,0,0,1,27,44H37a1,1,0,0,1,.79.38A1,1,0,0,1,38,45.24Z" class="colorfff svgShape"></path><path fill="#226089" d="M59,44H58V11a3,3,0,0,0-3-3H9a3,3,0,0,0-3,3V44H5a3,3,0,0,0-3,3v2a7,7,0,0,0,7,7H55a7,7,0,0,0,7-7V47A3,3,0,0,0,59,44ZM8,11a1,1,0,0,1,1-1H55a1,1,0,0,1,1,1V44H8ZM60,49a5,5,0,0,1-5,5H9a5,5,0,0,1-5-5V47a1,1,0,0,1,1-1H59a1,1,0,0,1,1,1Z" class="color4e5b5f svgShape"></path><path fill="#4592af" d="M22.22,26.79a5,5,0,1,0-6.44,0A7,7,0,0,0,12,33v4a3,3,0,0,0,3,3h8a3,3,0,0,0,3-3V33A7,7,0,0,0,22.22,26.79ZM16,23a3,3,0,1,1,3,3A3,3,0,0,1,16,23Zm8,14a1,1,0,0,1-1,1H15a1,1,0,0,1-1-1V33a5,5,0,0,1,10,0Z" class="color61c3b6 svgShape"></path><path fill="#000000" d="M40 21H36a1 1 0 0 1 0-2h4a1 1 0 0 1 0 2zM46 26H36a1 1 0 0 1 0-2H46a1 1 0 0 1 0 2zM46 31H36a1 1 0 0 1 0-2H46a1 1 0 0 1 0 2z" class="colorfff svgShape"></path></svg></g></svg>